<?xml version="1.0" encoding="UTF-8"?>
<svg version="1.1" xmlns="http://www.w3.org/2000/svg" width="1920" height="1920">
<path d="M0 0 C633.6 0 1267.2 0 1920 0 C1920 633.6 1920 1267.2 1920 1920 C1286.4 1920 652.8 1920 0 1920 C0 1286.4 0 652.8 0 0 Z " fill="#ED5948" transform="translate(0,0)"/>
<path d="M0 0 C1.20315794 -0.00611329 1.20315794 -0.00611329 2.4306221 -0.01235008 C6.70195491 -0.03311341 10.97325682 -0.0474395 15.24462891 -0.05688477 C18.68622275 -0.06561124 22.12739506 -0.08617462 25.56884766 -0.1184082 C57.19018895 -0.4075205 88.36916874 1.62308137 119.4765625 7.61328125 C121.11684548 7.92041692 122.75714538 8.2274622 124.39746094 8.53442383 C203.01173414 23.41814717 278.092206 60.45047641 327.1015625 125.23828125 C327.524375 125.79354492 327.9471875 126.34880859 328.3828125 126.92089844 C339.43599441 141.54045858 348.35669163 157.65358884 356.1015625 174.23828125 C356.41657715 174.90069824 356.7315918 175.56311523 357.05615234 176.24560547 C372.95686266 210.1021103 382.1015625 249.9398561 382.1015625 287.23828125 C298.2815625 287.23828125 214.4615625 287.23828125 128.1015625 287.23828125 C127.1115625 280.30828125 126.1215625 273.37828125 125.1015625 266.23828125 C118.69501943 240.37482961 102.93091979 218.12554013 80.1015625 204.23828125 C70.62827635 198.93144038 60.46711009 195.36634591 50.1015625 192.23828125 C49.33199219 192.00238281 48.56242187 191.76648438 47.76953125 191.5234375 C26.04398295 185.4615228 -4.79205063 186.65390862 -25.8984375 194.23828125 C-27.00203613 194.63176758 -27.00203613 194.63176758 -28.12792969 195.03320312 C-37.39417496 198.46331789 -45.18969739 203.00169637 -52.8984375 209.23828125 C-53.9296875 209.98078125 -54.9609375 210.72328125 -56.0234375 211.48828125 C-71.0170742 225.8300207 -79.35942509 246.30936301 -80.203125 266.87890625 C-80.39800009 276.06510141 -80.41647057 285.33932348 -77.8984375 294.23828125 C-77.49625 295.68847656 -77.49625 295.68847656 -77.0859375 297.16796875 C-73.7069937 308.2340097 -68.28058974 317.39610335 -60.8984375 326.23828125 C-60.40085937 326.88152344 -59.90328125 327.52476562 -59.390625 328.1875 C-36.71151497 356.27996544 4.5399214 370.62461877 37.24609375 382.6796875 C38.06077496 382.98033049 38.87545616 383.28097347 39.71482468 383.59072685 C59.73086389 390.95860024 79.96633977 397.64152628 100.2265625 404.30078125 C120.78173871 411.06211821 141.3188283 417.84328005 161.671875 425.1953125 C162.39100193 425.45453051 163.11012886 425.71374851 163.85104752 425.98082161 C187.73003727 434.60802564 211.19941911 444.26902183 234.1015625 455.23828125 C235.02582031 455.67849609 235.95007812 456.11871094 236.90234375 456.57226562 C261.90072411 468.54701426 285.51932716 482.81330672 307.1015625 500.23828125 C307.90811279 500.88821045 307.90811279 500.88821045 308.73095703 501.55126953 C323.56600066 513.62142152 337.59268776 527.09047537 348.88232422 542.5703125 C350.11460148 544.25611912 351.37362805 545.9192283 352.63671875 547.58203125 C359.40115651 556.61647575 364.90402846 566.23346426 370.1015625 576.23828125 C370.45992187 576.92229004 370.81828125 577.60629883 371.1875 578.31103516 C380.22391124 595.78511047 386.21726536 614.67899416 389.70019531 634.01220703 C390.10488928 636.25673234 390.53488208 638.49532401 390.96875 640.734375 C393.88097631 656.19131613 394.31035912 671.42375754 394.2890625 687.11328125 C394.28779358 688.07147766 394.28652466 689.02967407 394.28521729 690.01690674 C394.20883615 720.24805554 390.82785061 749.42868616 381.1015625 778.23828125 C380.83682129 779.04152832 380.57208008 779.84477539 380.29931641 780.67236328 C367.94770403 817.78293245 348.2538844 850.84850865 321.66796875 879.44921875 C319.52658035 881.7763897 317.45813621 884.1388674 315.4140625 886.55078125 C312.60254199 889.78768548 309.5762485 892.5779074 306.3046875 895.34375 C303.83399216 897.46837277 301.477437 899.69573138 299.1015625 901.92578125 C268.58408079 929.7034338 230.54258748 948.27027922 192.1015625 962.23828125 C191.29444824 962.53573242 190.48733398 962.83318359 189.65576172 963.13964844 C165.88697617 971.8295374 141.05626868 976.49453897 116.1015625 980.23828125 C114.62163818 980.4700708 114.62163818 980.4700708 113.11181641 980.70654297 C26.323986 994.29723898 -71.48162255 984.0653838 -216.10668945 911.81811523 C-224.32076801 905.7853889 -232.02655306 899.22436581 -239.5546875 892.36328125 C-241.70536461 890.41333401 -243.88668721 888.50801996 -246.0859375 886.61328125 C-252.55959184 880.95858318 -258.36171281 874.80485713 -263.8984375 868.23828125 C-264.34429199 867.71685547 -264.79014648 867.19542969 -265.24951172 866.65820312 C-301.1915826 824.45662432 -321.82271967 773.55505775 -329.6484375 718.98828125 C-329.76396973 718.21202393 -329.87950195 717.4357666 -329.99853516 716.63598633 C-331.3040446 706.84466549 -331.42521848 697.17588075 -331.8984375 687.23828125 C-249.3984375 687.23828125 -166.8984375 687.23828125 -81.8984375 687.23828125 C-80.5784375 694.82828125 -79.2584375 702.41828125 -77.8984375 710.23828125 C-75.30919436 720.064127 -72.52086163 729.20474381 -67.8984375 738.23828125 C-67.38539063 739.285 -66.87234375 740.33171875 -66.34375 741.41015625 C-54.61364131 764.43792722 -33.9998778 781.12678404 -9.7109375 789.61328125 C27.48844109 800.79342236 70.32420702 799.56001291 105.1640625 781.30078125 C110.9266734 778.14829411 116.10300828 774.48806419 121.1015625 770.23828125 C121.9265625 769.6040625 122.7515625 768.96984375 123.6015625 768.31640625 C137.35742802 756.88184303 145.37325869 738.15400839 147.8203125 720.71875 C149.69245285 697.55101316 146.88418336 674.30987965 131.75927734 655.57568359 C128.37567644 651.63022596 124.78578123 647.90230557 121.1015625 644.23828125 C120.36035156 643.49707031 119.61914062 642.75585938 118.85546875 641.9921875 C96.10050522 620.61370569 64.76517432 609.03839832 35.94458008 598.56567383 C35.21238251 598.29958817 34.48018494 598.0335025 33.72579956 597.75935364 C32.35740592 597.263555 30.98818591 596.77002809 29.61795044 596.27934265 C26.49164916 595.15155475 23.41109614 593.96278651 20.36425781 592.63769531 C16.78381266 591.10199405 13.15991662 590.02216025 9.4140625 588.98828125 C2.82363505 587.11544351 -3.63484901 584.9816265 -10.0859375 582.67578125 C-16.6590577 580.33094047 -23.22337417 578.23893319 -29.95703125 576.39453125 C-35.26796534 574.8848241 -40.48114219 573.06687563 -45.7109375 571.30078125 C-52.63629032 568.96365501 -59.55749242 566.68330004 -66.5859375 564.67578125 C-73.09893978 562.81275595 -79.53477322 560.75683042 -85.9609375 558.61328125 C-87.26454224 558.1790686 -87.26454224 558.1790686 -88.59448242 557.73608398 C-92.99544999 556.25662064 -97.36218502 554.71502066 -101.7019043 553.06494141 C-104.35034389 552.06820733 -107.01070263 551.10675099 -109.671875 550.14453125 C-158.20292029 532.5116587 -207.0384311 510.95812069 -246.27563477 476.65649414 C-247.44121645 475.63785957 -248.61155143 474.62465442 -249.78491211 473.61499023 C-261.54564323 463.44714112 -272.42803642 452.47565835 -281.64697266 439.93847656 C-282.89576191 438.24191621 -284.16730853 436.5643215 -285.44140625 434.88671875 C-292.19864711 425.85489228 -297.70454518 416.23846199 -302.8984375 406.23828125 C-303.2190918 405.62436523 -303.53974609 405.01044922 -303.87011719 404.37792969 C-323.13827807 366.91322865 -329.14216915 325.19188141 -329.0859375 283.55078125 C-329.08503113 282.30045609 -329.08503113 282.30045609 -329.08410645 281.02487183 C-329.05919738 268.33112148 -328.7407496 255.8176998 -326.8984375 243.23828125 C-326.77484863 242.35849609 -326.65125977 241.47871094 -326.52392578 240.57226562 C-319.72888882 193.55884626 -301.34720173 149.76594315 -270.8984375 113.23828125 C-270.44710449 112.69671387 -269.99577148 112.15514648 -269.53076172 111.59716797 C-260.98729025 101.38502771 -252.11419934 91.81427394 -241.8984375 83.23828125 C-241.39586426 82.80596191 -240.89329102 82.37364258 -240.37548828 81.92822266 C-223.17495746 67.17001829 -204.08183246 54.53955072 -183.8984375 44.23828125 C-182.98578125 43.76970703 -182.073125 43.30113281 -181.1328125 42.81835938 C-138.15921976 20.96208106 -91.85573741 9.03306949 -44.2109375 3.05078125 C-43.53529755 2.96592468 -42.85965759 2.88106812 -42.1635437 2.79364014 C-28.07255333 1.03932891 -14.19216107 0.06225371 0 0 Z " fill="#FEFEFE" transform="translate(1346.8984375,463.76171875)"/>
<path d="M0 0 C1.03629295 -0.0098568 1.03629295 -0.0098568 2.09352112 -0.01991272 C4.37810428 -0.03958028 6.66262043 -0.05132094 8.94726562 -0.0612793 C10.14212837 -0.06739259 10.14212837 -0.06739259 11.36112976 -0.07362938 C15.61298354 -0.09450565 19.86480532 -0.10877643 24.11669922 -0.11816406 C27.55080849 -0.1268572 30.98449072 -0.1473175 34.41845703 -0.1796875 C66.00769046 -0.47050515 97.15245918 1.57509543 128.22851562 7.55200195 C129.86072369 7.85630634 131.49296742 8.16041955 133.12524414 8.46435547 C184.82831622 18.21433065 236.6115245 37.22137949 278.85351562 69.17700195 C279.95866289 69.99514473 281.0641352 70.8128486 282.16992188 71.63012695 C288.84391635 76.61306228 295.0599834 81.94705487 301.13476562 87.6418457 C303.43929796 89.79075589 305.77705525 91.87341486 308.16601562 93.92700195 C325.92302433 109.37266448 339.93821865 129.03050221 351.85351562 149.17700195 C352.3238623 149.96800293 352.79420898 150.75900391 353.27880859 151.57397461 C362.42031887 167.10854661 370.30699965 183.64878834 375.21508789 201.03540039 C375.79872821 202.99321792 376.53792803 204.90291149 377.29101562 206.80200195 C379.80486935 213.39272726 381.27499549 220.31593638 382.85351562 227.17700195 C383.0576709 228.05984863 383.26182617 228.94269531 383.47216797 229.85229492 C386.08940967 241.3327849 388.24120992 252.79732712 389.66601562 264.48950195 C389.78984619 265.4961792 389.91367676 266.50285645 390.04125977 267.54003906 C390.79493102 274.21327395 390.85351562 280.33456084 390.85351562 287.17700195 C307.03351562 287.17700195 223.21351563 287.17700195 136.85351562 287.17700195 C135.86351562 280.24700195 134.87351562 273.31700195 133.85351562 266.17700195 C127.43810385 240.27774701 111.6703029 218.12260305 88.85351562 204.17700195 C79.92772362 199.08819738 70.5103817 195.91093275 60.63085938 193.2199707 C56.85351563 192.17700195 56.85351563 192.17700195 54.04492188 191.1027832 C33.33618286 185.09547458 2.94668723 186.95671826 -17.14648438 194.17700195 C-18.25008301 194.57048828 -18.25008301 194.57048828 -19.37597656 194.97192383 C-28.64222184 198.40203859 -36.43774426 202.94041707 -44.14648438 209.17700195 C-45.17773438 209.91950195 -46.20898438 210.66200195 -47.27148438 211.42700195 C-59.04438891 222.68804107 -65.33979875 236.58689401 -69.14648438 252.17700195 C-69.41464966 253.19515991 -69.41464966 253.19515991 -69.68823242 254.23388672 C-74.84005768 274.99493934 -70.89734801 297.00316489 -60.14648438 315.17700195 C-57.98786034 318.67303436 -55.69383357 321.95452012 -53.14648438 325.17700195 C-52.29376953 326.2752832 -52.29376953 326.2752832 -51.42382812 327.39575195 C-13.545957 373.07437361 63.18908233 389.66791696 117.48052979 407.22564697 C186.66950366 429.60529796 258.57547316 453.93209659 315.85351562 500.17700195 C316.66006592 500.82693115 316.66006592 500.82693115 317.48291016 501.48999023 C332.31795379 513.56014222 346.34464088 527.02919608 357.63427734 542.5090332 C358.86655461 544.19483982 360.12558118 545.85794901 361.38867188 547.52075195 C384.42852295 578.29230507 396.99178788 615.32693049 401.85351562 653.17700195 C401.94125244 653.84166977 402.02898926 654.50633759 402.11938477 655.19114685 C402.82970672 660.98485759 403.01434659 666.6951531 403.02148438 672.52856445 C403.02481277 673.50449554 403.02814117 674.48042664 403.03157043 675.4859314 C403.03660995 677.54831476 403.03897969 679.61070619 403.03881836 681.6730957 C403.0409755 684.74485769 403.05908147 687.81624223 403.078125 690.88793945 C403.13088351 708.93696986 402.43376224 727.10710097 398.60351562 744.80200195 C398.38735596 745.83429932 398.17119629 746.86659668 397.94848633 747.93017578 C387.49500797 796.47829076 365.6267511 840.97491352 332.10742188 877.70043945 C330.57929603 879.37952401 329.06665705 881.07281018 327.56835938 882.77856445 C323.59545009 887.2898268 319.58702683 891.48278371 314.98632812 895.3527832 C312.5349136 897.44950588 310.20527142 899.65665957 307.85351562 901.86450195 C277.33603392 929.6421545 239.2945406 948.20899992 200.85351562 962.17700195 C200.04640137 962.47445312 199.23928711 962.7719043 198.40771484 963.07836914 C174.64130787 971.76738849 149.80778515 976.44295591 124.85351562 980.17700195 C123.35763916 980.4087915 123.35763916 980.4087915 121.83154297 980.64526367 C115.51890791 981.620404 109.20116035 982.46418897 102.85351562 983.17700195 C101.92861328 983.28141602 101.00371094 983.38583008 100.05078125 983.4934082 C12.66694244 992.79081328 -81.03677368 978.67780084 -218.45898438 903.05200195 C-222.69097361 899.62009028 -226.74307441 896.00896676 -230.76757812 892.3371582 C-232.92920389 890.37430262 -235.12174699 888.45733935 -237.33398438 886.55200195 C-243.80763871 880.89730389 -249.60975968 874.74357783 -255.14648438 868.17700195 C-255.59233887 867.65557617 -256.03819336 867.13415039 -256.49755859 866.59692383 C-292.43962948 824.39534503 -313.07076654 773.49377845 -320.89648438 718.92700195 C-321.0120166 718.15074463 -321.12754883 717.3744873 -321.24658203 716.57470703 C-322.55209148 706.78338619 -322.67326535 697.11460145 -323.14648438 687.17700195 C-240.64648438 687.17700195 -158.14648438 687.17700195 -73.14648438 687.17700195 C-72.48648438 692.12700195 -71.82648438 697.07700195 -71.14648438 702.17700195 C-70.46061009 705.55667235 -69.75610835 708.8479191 -68.89648438 712.17700195 C-68.68032471 713.02020996 -68.46416504 713.86341797 -68.24145508 714.73217773 C-61.24830533 741.05434353 -46.20727057 765.34112251 -22.23730469 779.2878418 C12.39360353 798.94124752 52.5094558 800.37896754 90.52978516 790.48022461 C105.06641672 786.44243015 118.31859659 779.98401814 129.85351562 770.17700195 C130.67851563 769.5427832 131.50351562 768.90856445 132.35351562 768.25512695 C146.10938115 756.82056374 154.12521182 738.09272909 156.57226562 720.6574707 C158.44440598 697.48973387 155.63613648 674.24860036 140.51123047 655.5144043 C137.12762957 651.56894666 133.53773436 647.84102627 129.85351562 644.17700195 C129.11230469 643.43579102 128.37109375 642.69458008 127.60742188 641.9309082 C102.65653337 618.48933621 67.64818884 606.53949235 36.00537109 595.3527832 C33.79229776 594.52720914 31.60592415 593.62815461 29.44384766 592.67700195 C25.7036386 591.11438503 21.93712307 589.95015163 18.04101562 588.86450195 C11.95223009 587.1197857 5.91961336 585.25820185 -0.08398438 583.23950195 C-0.82874023 582.98910156 -1.57349609 582.73870117 -2.34082031 582.48071289 C-5.36746461 581.45966055 -8.39218617 580.4329767 -11.41699219 579.40649414 C-20.96399218 576.1721037 -30.53492895 573.12864343 -40.21728516 570.32495117 C-45.70554323 568.73236813 -51.14602721 566.99516864 -56.58398438 565.23950195 C-58.1694104 564.72963745 -58.1694104 564.72963745 -59.78686523 564.20947266 C-66.26919718 562.1196477 -72.74473373 560.00962354 -79.20898438 557.86450195 C-80.25107056 557.51947632 -80.25107056 557.51947632 -81.31420898 557.16748047 C-85.16936717 555.87833371 -88.98014606 554.50103637 -92.78149414 553.05908203 C-95.71462471 551.96510033 -98.66261843 550.91576644 -101.61132812 549.86450195 C-118.10632264 543.95245655 -134.23917182 537.55566461 -150.14648438 530.17700195 C-151.19707031 529.69086426 -152.24765625 529.20472656 -153.33007812 528.70385742 C-198.22456085 507.81431857 -243.23515348 480.5574205 -272.92724609 439.8449707 C-274.15952336 438.15916408 -275.41854993 436.4960549 -276.68164062 434.83325195 C-300.52126145 402.99813257 -312.96953287 364.19369052 -318.14648438 325.17700195 C-318.26652832 324.27626953 -318.38657227 323.37553711 -318.51025391 322.44750977 C-327.33341715 252.25668205 -312.26310905 177.54926082 -268.67382812 120.8996582 C-266.55014295 118.27492208 -264.36591075 115.72112926 -262.14648438 113.17700195 C-261.1901967 112.04054414 -260.23590013 110.90240902 -259.28320312 109.76293945 C-250.92805662 99.8149342 -242.10996788 90.54186684 -232.14648438 82.17700195 C-231.37304688 81.51442383 -230.59960938 80.8518457 -229.80273438 80.16918945 C-200.18980063 55.28362163 -165.54873001 36.90596536 -129.14648438 24.17700195 C-128.12522461 23.81912598 -127.10396484 23.46125 -126.05175781 23.0925293 C-104.31419371 15.58501233 -81.84847952 9.88994508 -59.14648438 6.17700195 C-58.06367188 5.9965332 -56.98085938 5.81606445 -55.86523438 5.63012695 C-52.62955907 5.11179062 -49.39137428 4.6340287 -46.14648438 4.17700195 C-44.90382813 4.00168945 -43.66117187 3.82637695 -42.38085938 3.64575195 C-34.56481905 2.58686689 -26.78593764 1.87585753 -18.90527344 1.51855469 C-16.01175193 1.38158533 -13.21214009 1.18888162 -10.35925293 0.67268372 C-6.863604 0.13335778 -3.5368426 0.02807953 0 0 Z " fill="#FEFEFE" transform="translate(495.146484375,463.822998046875)"/>
<path d="M0 0 C0.33 0 0.66 0 1 0 C1 26.73 1 53.46 1 81 C-25.73 81 -52.46 81 -80 81 C-80 80.67 -80 80.34 -80 80 C-78.93523437 79.78085938 -77.87046875 79.56171875 -76.7734375 79.3359375 C-51.84694707 73.98381852 -29.63304127 61.38587285 -15.375 39.6875 C-7.73432136 27.19090031 -2.43373023 14.47429031 0 0 Z " fill="#000000" transform="translate(1919,1839)"/>
<path d="M0 0 C0.33 0 0.66 0 1 0 C1.21914063 1.06476563 1.43828125 2.12953125 1.6640625 3.2265625 C7.01618148 28.15305293 19.61412715 50.36695873 41.3125 64.625 C53.80909969 72.26567864 66.52570969 77.56626977 81 80 C81 80.33 81 80.66 81 81 C54.27 81 27.54 81 0 81 C0 54.27 0 27.54 0 0 Z " fill="#000000" transform="translate(0,1839)"/>
<path d="M0 0 C26.73 0 53.46 0 81 0 C81 26.73 81 53.46 81 81 C80.67 81 80.34 81 80 81 C79.78085938 79.93523437 79.56171875 78.87046875 79.3359375 77.7734375 C73.98381852 52.84694707 61.38587285 30.63304127 39.6875 16.375 C27.19090031 8.73432136 14.47429031 3.43373023 0 1 C0 0.67 0 0.34 0 0 Z " fill="#000000" transform="translate(1839,0)"/>
<path d="M0 0 C26.73 0 53.46 0 81 0 C81 0.33 81 0.66 81 1 C79.93523437 1.21914063 78.87046875 1.43828125 77.7734375 1.6640625 C52.84694707 7.01618148 30.63304127 19.61412715 16.375 41.3125 C8.73432136 53.80909969 3.43373023 66.52570969 1 81 C0.67 81 0.34 81 0 81 C0 54.27 0 27.54 0 0 Z " fill="#000000" transform="translate(0,0)"/>
<path d="M0 0 C0.66 0.33 1.32 0.66 2 1 C-6.91 9.91 -15.82 18.82 -25 28 C-25.66 27.67 -26.32 27.34 -27 27 C-18.47786621 17.44632301 -9.46139718 8.62124579 0 0 Z " fill="#E1E7EA" transform="translate(264,545)"/>
<path d="M0 0 C0.66 0.33 1.32 0.66 2 1 C-6.91 9.91 -15.82 18.82 -25 28 C-25.66 27.67 -26.32 27.34 -27 27 C-18.47786621 17.44632301 -9.46139718 8.62124579 0 0 Z " fill="#E1E8E9" transform="translate(1107,545)"/>
</svg>
